<svg width="96" height="122" viewBox="0 0 96 122" fill="none" xmlns="http://www.w3.org/2000/svg">
<path d="M51.448 103.752C48.664 103.752 46.552 103.584 45.112 103.248C43.72 102.912 43.024 102.624 43.024 102.384C43.024 102.096 43.648 101.952 44.896 101.952C45.232 101.952 45.568 101.952 45.904 101.952C46.288 102 46.72 102.048 47.2 102.096C47.536 102.144 47.896 102.168 48.28 102.168C48.664 102.216 49.048 102.24 49.432 102.24C51.688 102.24 54.304 101.976 57.28 101.448C60.304 100.92 63.4 100.176 66.568 99.216C69.736 98.256 72.76 97.104 75.64 95.76C78.52 94.368 80.992 92.856 83.056 91.224C85.168 89.544 86.584 87.744 87.304 85.824C87.928 84.288 88.24 82.656 88.24 80.928C88.24 78.048 87.376 75.288 85.648 72.648C83.92 69.96 81.52 67.584 78.448 65.52C75.424 63.456 71.896 61.848 67.864 60.696C63.832 59.544 59.536 59.016 54.976 59.112C49.984 59.256 45.832 59.568 42.52 60.048C39.256 60.528 36.616 61.152 34.6 61.92C32.584 62.688 30.976 63.552 29.776 64.512C28.624 65.472 27.688 66.48 26.968 67.536C26.296 68.544 25.624 69.576 24.952 70.632C24.952 70.728 25.024 71.112 25.168 71.784C25.312 72.408 25.624 73.008 26.104 73.584C26.584 74.16 27.328 74.448 28.336 74.448C29.296 74.448 29.776 74.592 29.776 74.88C29.776 75.072 29.632 75.24 29.344 75.384C29.056 75.528 28.744 75.6 28.408 75.6C27.688 75.6 26.8 75.528 25.744 75.384C24.688 75.192 23.632 74.976 22.576 74.736C21.52 74.496 20.608 74.232 19.84 73.944C19.024 73.656 18.52 73.392 18.328 73.152C18.136 72.912 17.968 72.576 17.824 72.144C17.632 71.712 17.536 71.256 17.536 70.776C17.536 69.864 17.848 68.856 18.472 67.752C19.096 66.648 20.2 65.544 21.784 64.44C23.368 63.336 25.576 62.304 28.408 61.344C31.24 60.336 34.816 59.496 39.136 58.824C43.456 58.152 48.712 57.744 54.904 57.6H57.136C62.608 57.6 67.408 58.08 71.536 59.04C75.712 60 79.24 61.296 82.12 62.928C85.048 64.512 87.424 66.288 89.248 68.256C91.072 70.176 92.392 72.144 93.208 74.16C94.072 76.176 94.504 78.048 94.504 79.776C94.504 81.024 94.312 82.176 93.928 83.232C92.776 86.208 91.192 88.8 89.176 91.008C87.16 93.168 84.88 94.992 82.336 96.48C79.84 97.968 77.224 99.168 74.488 100.08C71.752 100.992 69.088 101.688 66.496 102.168C63.904 102.696 61.528 103.056 59.368 103.248C57.208 103.488 55.456 103.632 54.112 103.68C53.632 103.728 53.152 103.752 52.672 103.752C52.24 103.752 51.832 103.752 51.448 103.752ZM37.12 105.264C36.736 105.264 36.28 104.928 35.752 104.256C35.224 103.632 34.768 102.384 34.384 100.512C34.336 100.224 34.288 99.912 34.24 99.576C34.24 99.288 34.24 98.976 34.24 98.64C34.24 97.008 34.456 95.088 34.888 92.88C35.368 90.624 35.992 88.272 36.76 85.824C37.528 83.328 38.368 80.88 39.28 78.48C40.192 76.08 41.128 73.872 42.088 71.856C43.048 69.84 43.912 68.208 44.68 66.96C45.352 65.856 46.336 65.088 47.632 64.656C48.928 64.224 50.152 64.008 51.304 64.008C52.408 64.008 53.32 64.176 54.04 64.512C54.76 64.8 54.952 65.136 54.616 65.52C53.032 67.44 51.4 69.768 49.72 72.504C48.088 75.24 46.528 78.12 45.04 81.144C43.552 84.168 42.232 87.192 41.08 90.216C39.976 93.192 39.112 95.928 38.488 98.424C37.912 100.92 37.72 102.984 37.912 104.616C37.912 105.048 37.648 105.264 37.12 105.264Z" fill="white"/>
<path d="M45.468 38.904C45.468 41.856 43.992 43.332 41.04 43.332C39.78 43.332 38.736 43.062 37.908 42.522C37.116 41.982 36.306 40.812 35.478 39.012C34.506 36.888 33.462 35.502 32.346 34.854C31.266 34.17 29.844 33.828 28.08 33.828C23.724 33.828 20.394 35.646 18.09 39.282C15.822 42.882 14.688 48.156 14.688 55.104C14.688 60.9 16.128 65.58 19.008 69.144C21.888 72.672 25.74 74.436 30.564 74.436C36.036 74.436 40.374 72.726 43.578 69.306L43.848 69.198C44.172 69.198 44.478 69.414 44.766 69.846C45.09 70.242 45.252 70.692 45.252 71.196C45.252 71.916 44.19 73.158 42.066 74.922C39.978 76.686 37.674 78.018 35.154 78.918C32.67 79.818 30.024 80.268 27.216 80.268C20.772 80.268 15.246 77.91 10.638 73.194C6.066 68.442 3.78 62.448 3.78 55.212C3.78 48.048 6.174 42.126 10.962 37.446C15.786 32.73 21.492 30.372 28.08 30.372C32.94 30.372 37.044 31.218 40.392 32.91C43.776 34.566 45.468 36.564 45.468 38.904Z" fill="white"/>
</svg>
